<svg height="76" viewBox="0 0 76 76" width="76" xmlns="http://www.w3.org/2000/svg"><g fill="#82bc00" transform="translate(0 1)"><path d="m46.43 16.4c-.2832069-.3909421-.7372588-.6216898-1.22-.62h-16.48c-.6788165-.0007181-1.273508.4545285-1.45 1.11l-6.19 22.83c-.1214036.4508774-.0259148.9325759.2583073 1.3030447.284222.3704687.7247569.5874494 1.1916927.5869553h4.68v19.11c-.0005653.6368943.4011268 1.2047074 1.0018781 1.4162079.6007514.2115004 1.2695667.0205701 1.6681219-.4762079l24.74-30.92c.3618909-.4500269.4333008-1.0678401.1836131-1.5885563-.2496876-.5207162-.7761279-.8518553-1.3536131-.8514437h-10.3l3.47-10.55c.1537564-.4560281.0793696-.9581387-.2-1.35zm3.91 14.9-20.11 25.14v-16.33c0-.8284271-.6715729-1.5-1.5-1.5h-4.23l5.37-19.83h13.27l-3.47 10.55c-.1626625.4600675-.0913653.9705062.1911351 1.3683941.2825004.3978878.7408919.6334896 1.2288649.6316059h9.25z"/><path d="m4 37c-.01981541-6.4844674 1.81948662-12.8387354 5.3-18.31.44735065-.6986402.24364021-1.6276494-.455-2.075s-1.62764935-.2436402-2.075.455c-7.09721828 11.1314527-7.74088303 25.1968606-1.69 36.93.38107649.7373001 1.28769985 1.0260764 2.02499998.645.73730013-.3810765 1.02607647-1.2876999.64500002-2.025-2.49229892-4.8277176-3.77893654-10.1869922-3.75-15.62z"/><path d="m57.4 64.94c-14.5085947 10.0985926-34.3352801 7.3947561-45.61-6.22-.5301934-.6378889-1.4771111-.7251934-2.115-.195-.63788889.5301934-.72519336 1.4771111-.195 2.115 12.3325169 14.9098992 34.0702947 17.7998424 49.87 6.63l1.34 1.6 2.46-6.75-7.07 1.24z"/><path d="m70.92 20c-.3810765-.7373001-1.2876999-1.0260764-2.025-.6449999-.7373001.3810764-1.0260764 1.2876998-.645 2.0249999 5.8292858 11.3207974 4.8612181 24.947025-2.51 35.33-.3408653.4345216-.4153922 1.0212-.1939963 1.5271467s.7028987.8493135 1.2533707.8937971c.550472.0444837 1.0808619-.217112 1.3806256-.6809438 8.0269968-11.2975279 9.0838641-26.1283848 2.74-38.45z"/><path d="m38 0c-7.6401227-.02055238-15.0963973 2.34252385-21.33 6.76l-1.34-1.6-2.46 6.74 7.07-1.24-1.32-1.66c13.513608-9.39285914 31.8144627-7.75862861 43.45 3.88.5910195.5507177 1.5120194.5344678 2.0832436-.0367564s.5874741-1.4922241.0367564-2.0832436c-6.944974-6.9369418-16.3741333-10.81085376-26.19-10.76z"/></g></svg>