<svg enable-background="new 0 0 100 100" viewBox="0 0 100 100" xmlns="http://www.w3.org/2000/svg"><path d="m5 21.875c0-4.661 3.777-8.438 8.438-8.438h73.125c4.661 0 8.438 3.777 8.438 8.438s-3.777 8.438-8.438 8.438h-73.125c-4.661-.001-8.438-3.777-8.438-8.438zm81.562 19.687h-73.124c-4.661 0-8.438 3.777-8.438 8.438s3.777 8.438 8.438 8.438h73.125c4.66 0 8.437-3.777 8.437-8.438s-3.777-8.438-8.438-8.438zm0 28.126h-73.124c-4.661 0-8.438 3.776-8.438 8.437s3.777 8.438 8.438 8.438h73.125c4.661 0 8.438-3.777 8.438-8.438s-3.778-8.437-8.439-8.437z" fill="#fff"/></svg>