<svg height="235" viewBox="0 0 437 235" width="437" xmlns="http://www.w3.org/2000/svg"><g><path d="m340.2 183.5-1.4-5.3c0-1-5.3-19.7-4.8-42.2.5-24.5 21.1-40.3 22.1-41.3l6.7 8.6s-16.8 13.4-17.3 32.6c-.5 13.9 1.4 26.9 2.9 33.6l21.6-6.2 3.4 10.6z"/><path d="m341.2 123c-2.4-.5-9.1-4.3-14.9-21.6-5.8-16.8-15.4-53.8-15.8-55.7l-1.4-5.3 31.2-8.2 2.9 10.6-20.2 5.3c2.9 11 9.6 37 13.9 49.4s7.7 14.9 8.2 14.9c0 0 0 0-.5-.5z"/><path d="m387.8 210.9c-2.9 0-5.8-1-7.7-2.4-5.8-3.8-7.7-12-7.7-13.4l-38.4-172.9 65.8-16.8 2.9 10.6-55.2 13.9 36 162.7c0 1.4 1.4 4.8 2.9 6.2.5.5 1 .5 2.9.5 10.6-2.4 44.6-10.6 44.6-10.6l2.4 11c-.5 0-34.6 8.2-45.1 10.6-1 .1-2.5.6-3.4.6z"/><path d="m330.6 164.8c-2.9 0-6.2-.5-8.6-1.9-4.8-2.4-52.3-51.4-82.6-83.5-1.9 1.4-4.3 2.9-7.2 4.3-4.8 2.4-9.6 3.4-13 3.8-1.9 5.3-5.8 15.4-10.6 25-5.3 11.5-20.6 14.9-29.3 13.4-12.5-1.9-12.5-8.2-11-22.1 1.4-13 2.9-22.6 3.4-24 .5-3.4 2.9-23 11.5-31.2 7.2-6.7 35.5-25.4 39.4-27.8 3.8-3.4 12.5-7.2 24.5-2.4 12.5 4.8 73.4 28.8 73.9 29.3l-4.3 10.6c-.5-.5-61.9-24.5-73.9-28.8-8.2-2.9-12.5 0-13 .5l-.5.5h-.5c-8.6 5.8-32.2 21.6-37.9 26.9-4.3 4.3-7.2 18.2-8.2 24.5v.5s-1.9 9.6-2.9 23.5c-.5 2.4-1 7.7-.5 9.6.5 0 1.4.5 2.4.5 5.3 1 14.9-1.4 17.8-7.2 5.8-12.5 11-27.4 11-27.4l1.4-3.4h3.8s7.2-.5 12.5-2.9c5.3-2.9 7.2-5.3 7.7-5.8l3.8-6.2 4.8 5.8c29.8 30.7 78.2 81.1 84 85.4 1.9 1 7.2.5 10.6-.5l2.9 10.6c-2.2-.6-6.6.4-11.4.4z"/><path d="m175.1 223.8c-3.8 0-7.7-1.4-11.5-3.8-13.4-9.6-8.6-26.9-4.3-34.6l1.9-2.9h3.4c.5 0 11 1 19.7 8.2 9.6 8.2 11.5 15.4 11.5 16.3l.5 2.4-1.4 2.4c-1.1 1.5-8.3 12-19.8 12zm-7.7-29.2c-.5 1.4-1 2.9-1.4 4.8-1 6.7 1.9 9.6 3.8 11s3.4 1.9 5.3 1.9c3.4 0 6.7-2.9 8.6-4.8-1-1.9-3.4-4.8-7.2-8.6-3.3-1.9-6.7-3.4-9.1-4.3z"/><path d="m149.7 205.1c-2.9 0-5.8-1-8.6-2.4-12.5-6.7-10.1-22.1-7.2-28.8l1.4-2.9h3.4 1c1.9 0 9.6.5 16.3 5.3 8.6 5.8 11 12 11.5 13l1 2.4-1 1.9c-2.5 3.4-8.7 11.5-17.8 11.5zm-6.7-23.5c-1 3.4-1 8.6 3.4 11 1 .5 2.4 1 3.4 1 2.4 0 4.8-1.9 6.2-3.8-1-1.4-2.9-3.4-5.8-5.3-2.4-1.5-5.3-2.4-7.2-2.9z"/><path d="m199.1 234.4c-1.9 0-4.3-.5-6.2-1.4-12-4.8-11-18.7-9.1-25l1-3.4 3.4-.5h3.4c2.9 0 7.7.5 12.5 2.9 8.2 4.3 11 9.1 11.5 10.1l1 2.4-1 2.4c-1.6 4.3-7.4 12.5-16.5 12.5zm-5.3-19.2c0 2.9 0 6.2 3.4 7.7 1 .5 1.4.5 1.9.5 1.9 0 3.4-1.4 4.3-3.4-1-1-2.4-2.4-4.8-3.4-1.4-.9-3.3-1.4-4.8-1.4z"/><path d="m129 188.8c-2.4 0-4.8-.5-7.2-1.9-10.6-5.8-8.6-18.2-5.8-24l1.4-2.9h3.4.5c2.4 0 8.2.5 13.4 4.3 6.7 4.8 9.1 9.6 9.1 10.6l1 2.4-1 2.4c-.4 0-5.6 9.1-14.8 9.1zm-3.8-17.8c-.5 1.9 0 4.8 2.4 5.8.5.5 1.4.5 1.9.5 1 0 1.9-1 2.9-1.9-1-1-1.9-1.9-3.4-2.9-1.9-.5-2.8-1-3.8-1.5z"/><path d="m119 170.1s-9.1-3.8-20.2-8.2l4.3-10.6c10.6 4.8 19.7 8.6 19.7 8.6z"/><path d="m131.4 54.4c-2.9 0-5.3-.5-6.2-1l-3.8-1 2.9-11 4.3 1s3.8 1 7.2-.5c3.8-1.9 12.5-6.7 13.4-7.2l41.8-25.9c2.4-1.4 11-6.7 15.8-7.7 4.8-1 12.5 0 13.4 0l47.5 3.8c1.9 0 8.2 1 11.5 4.8 2.9 2.9 4.3 9.6 5.3 12l3.4 13-11.5 2.9-3.4-13.4c-.5-2.9-1.4-5.8-2.4-6.7-.5-.5-2.9-1-4.3-1.4l-47-3.8c-2.9 0-8.2-.5-10.6 0-1.4.5-7.2 2.9-11.5 6.2l-42.2 26.3c-.5 0-10.1 5.8-14.4 7.7-2.9 1.4-6.3 1.9-9.2 1.9z"/><path d="m230.3 229.1c-7.7 0-19.2-3.8-21.6-4.8l3.8-10.6c6.7 2.4 15.8 4.3 18.7 3.8 2.4-.5 6.7-4.8 8.6-7.7l9.1 6.2c-1.4 1.9-8.2 11-16.3 12-.8 1.1-1.3 1.1-2.3 1.1z"/><path d="m257.2 223.8c-.5 0-.5 0 0 0-14.9-.5-33.6-19.7-35.5-22.1l8.2-7.7c6.7 7.2 19.7 18.2 27.4 18.2 3.4 0 8.6-5.8 11.5-9.6l9.1 6.2c-2 2.6-10.1 15-20.7 15z"/><path d="m280.2 211.8c-8.2 0-15.8-6.7-16.8-7.2l-24-21.6 7.7-8.2 24 21.6c1.9 1.4 6.7 4.8 10.1 4.3 3.8-.5 6.2-2.4 8.2-6.2 1-1.9 1.9-5.8 1.9-7.7l11 .5c0 1-.5 7.2-3.4 12.5-3.8 6.7-9.1 10.6-16.3 11.5-.9.5-1.9.5-2.4.5z"/><path d="m303.8 193.1c-8.6 0-16.8-6.7-22.1-11.5-6.2-5.8-22.1-25.4-23-26.4l8.6-7.2c4.3 5.8 17.3 21.1 22.1 25.4 7.7 7.7 12.5 8.6 14.9 8.6 4.8-.5 8.2-2.4 10.6-5.3 2.9-3.8 3.8-9.1 3.4-12-.5-3.8-1-5.3-4.3-8.6l8.2-7.7c4.8 4.8 6.7 8.6 7.2 14.9 1 5.8-.5 13.9-5.8 20.6-4.3 5.3-10.6 8.6-18.2 9.6-.7-.4-1.2-.4-1.6-.4z"/><path d="m360.9 93.3-2.9-10.6 8.2-1.9 2.9 11zm16.3-4.3-2.4-10.6 8.2-1.9 2.9 11zm16.3-3.9-2.9-11 8.2-1.9 2.9 11zm16.8-4.3-2.9-11 8.2-1.9 2.9 11z"/><path d="m100.2 183.5-32.6-10.1 3.4-10.6 21.6 6.2c1.4-6.7 3.4-19.7 2.9-33.6-.5-19.2-17.3-32.6-17.3-32.6l6.7-8.6c1 .5 21.1 16.3 22.1 41.3.5 23-4.3 41.8-4.8 42.2z"/><path d="m98.8 123-2.9-10.6c-.5 0-.5.5-.5.5s3.8-2.4 8.2-14.9c4.3-12.5 11-38.4 13.9-49.4l-20.2-5.3 2.9-10.6 31.2 8.2-1.4 5.3c-.5 1.4-10.1 38.9-15.8 55.7-6.3 17.3-12.5 20.7-15.4 21.1z"/><path d="m52.7 210.9c-1 0-2.4 0-3.4-.5-10.6-2.4-46.6-12-48.5-12.5l2.9-10.6c.5 0 37.4 9.6 48 12 1.4.5 2.4 0 2.9-.5 1.9-1.4 2.9-4.8 2.9-6.2v-.5l36-162.7-58.5-15.8 2.9-10.6 68.6 18.2-38.4 172.9c-.5 1.9-1.9 9.6-7.7 13.4-1.9 2.4-4.8 3.4-7.7 3.4z"/><path d="m50.8 169.6-8.2-1.9 2.4-11 8.2 1.9zm-16.8-3.8-8.2-1.9 2.4-11 8.2 1.9zm-16.3-3.9-8.2-1.9 2.4-11 8.2 1.9z"/><path d="m402.6 174.9c-10.6 0-19.2-8.6-19.2-19.2s8.6-19.2 19.2-19.2 19.2 8.6 19.2 19.2-8.6 19.2-19.2 19.2zm0-26.9c-4.3 0-7.7 3.4-7.7 7.7s3.4 7.7 7.7 7.7 7.7-3.4 7.7-7.7-3.3-7.7-7.7-7.7z"/></g></svg>