<svg xmlns="http://www.w3.org/2000/svg" xmlns:xlink="http://www.w3.org/1999/xlink" version="1.1" x="0px" y="0px" viewBox="0 0 480 480" enable-background="new 0 0 480 480" xml:space="preserve"><g><path d="M366.2,311.5l-1.4-5.3c0-1-5.3-19.7-4.8-42.2c0.5-24.5,21.1-40.3,22.1-41.3l6.7,8.6c0,0-16.8,13.4-17.3,32.6   c-0.5,13.9,1.4,26.9,2.9,33.6l21.6-6.2l3.4,10.6L366.2,311.5z"></path><path d="M367.2,251c-2.4-0.5-9.1-4.3-14.9-21.6c-5.8-16.8-15.4-53.8-15.8-55.7l-1.4-5.3l31.2-8.2l2.9,10.6l-20.2,5.3   c2.9,11,9.6,37,13.9,49.4s7.7,14.9,8.2,14.9c0,0,0,0-0.5-0.5L367.2,251z"></path><path d="M413.8,338.9c-2.9,0-5.8-1-7.7-2.4c-5.8-3.8-7.7-12-7.7-13.4L360,150.2l65.8-16.8l2.9,10.6l-55.2,13.9l36,162.7l0,0   c0,1.4,1.4,4.8,2.9,6.2c0.5,0.5,1,0.5,2.9,0.5c10.6-2.4,44.6-10.6,44.6-10.6l2.4,11c-0.5,0-34.6,8.2-45.1,10.6   C416.2,338.4,414.7,338.9,413.8,338.9z"></path><path d="M356.6,292.8c-2.9,0-6.2-0.5-8.6-1.9c-4.8-2.4-52.3-51.4-82.6-83.5c-1.9,1.4-4.3,2.9-7.2,4.3c-4.8,2.4-9.6,3.4-13,3.8   c-1.9,5.3-5.8,15.4-10.6,25c-5.3,11.5-20.6,14.9-29.3,13.4c-12.5-1.9-12.5-8.2-11-22.1c1.4-13,2.9-22.6,3.4-24   c0.5-3.4,2.9-23,11.5-31.2c7.2-6.7,35.5-25.4,39.4-27.8c3.8-3.4,12.5-7.2,24.5-2.4c12.5,4.8,73.4,28.8,73.9,29.3l-4.3,10.6   c-0.5-0.5-61.9-24.5-73.9-28.8c-8.2-2.9-12.5,0-13,0.5l-0.5,0.5h-0.5c-8.6,5.8-32.2,21.6-37.9,26.9c-4.3,4.3-7.2,18.2-8.2,24.5v0.5   c0,0-1.9,9.6-2.9,23.5c-0.5,2.4-1,7.7-0.5,9.6c0.5,0,1.4,0.5,2.4,0.5c5.3,1,14.9-1.4,17.8-7.2c5.8-12.5,11-27.4,11-27.4l1.4-3.4   h3.8c0,0,7.2-0.5,12.5-2.9c5.3-2.9,7.2-5.3,7.7-5.8l3.8-6.2l4.8,5.8c29.8,30.7,78.2,81.1,84,85.4c1.9,1,7.2,0.5,10.6-0.5l2.9,10.6   C365.8,291.8,361.4,292.8,356.6,292.8z"></path><path d="M201.1,351.8c-3.8,0-7.7-1.4-11.5-3.8c-13.4-9.6-8.6-26.9-4.3-34.6l1.9-2.9h3.4c0.5,0,11,1,19.7,8.2   c9.6,8.2,11.5,15.4,11.5,16.3l0.5,2.4l-1.4,2.4C219.8,341.3,212.6,351.8,201.1,351.8z M193.4,322.6c-0.5,1.4-1,2.9-1.4,4.8   c-1,6.7,1.9,9.6,3.8,11c1.9,1.4,3.4,1.9,5.3,1.9c3.4,0,6.7-2.9,8.6-4.8c-1-1.9-3.4-4.8-7.2-8.6C199.2,325,195.8,323.5,193.4,322.6z   "></path><path d="M175.7,333.1c-2.9,0-5.8-1-8.6-2.4c-12.5-6.7-10.1-22.1-7.2-28.8l1.4-2.9h3.4c0,0,0.5,0,1,0c1.9,0,9.6,0.5,16.3,5.3   c8.6,5.8,11,12,11.5,13l1,2.4l-1,1.9C191,325,184.8,333.1,175.7,333.1z M169,309.6c-1,3.4-1,8.6,3.4,11c1,0.5,2.4,1,3.4,1   c2.4,0,4.8-1.9,6.2-3.8c-1-1.4-2.9-3.4-5.8-5.3C173.8,311,170.9,310.1,169,309.6z"></path><path d="M225.1,362.4c-1.9,0-4.3-0.5-6.2-1.4c-12-4.8-11-18.7-9.1-25l1-3.4l3.4-0.5c0,0,1.4,0,3.4,0c2.9,0,7.7,0.5,12.5,2.9   c8.2,4.3,11,9.1,11.5,10.1l1,2.4l-1,2.4C240,354.2,234.2,362.4,225.1,362.4z M219.8,343.2c0,2.9,0,6.2,3.4,7.7   c1,0.5,1.4,0.5,1.9,0.5c1.9,0,3.4-1.4,4.3-3.4c-1-1-2.4-2.4-4.8-3.4C223.2,343.7,221.3,343.2,219.8,343.2z"></path><path d="M155,316.8c-2.4,0-4.8-0.5-7.2-1.9c-10.6-5.8-8.6-18.2-5.8-24l1.4-2.9h3.4c0,0,0,0,0.5,0c2.4,0,8.2,0.5,13.4,4.3   c6.7,4.8,9.1,9.6,9.1,10.6l1,2.4l-1,2.4C169.4,307.7,164.2,316.8,155,316.8z M151.2,299c-0.5,1.9,0,4.8,2.4,5.8   c0.5,0.5,1.4,0.5,1.9,0.5c1,0,1.9-1,2.9-1.9c-1-1-1.9-1.9-3.4-2.9C153.1,300,152.2,299.5,151.2,299z"></path><path d="M145,298.1c0,0-9.1-3.8-20.2-8.2l4.3-10.6c10.6,4.8,19.7,8.6,19.7,8.6L145,298.1z"></path><path d="M157.4,182.4c-2.9,0-5.3-0.5-6.2-1l-3.8-1l2.9-11l4.3,1l0,0c0,0,3.8,1,7.2-0.5c3.8-1.9,12.5-6.7,13.4-7.2l41.8-25.9   c2.4-1.4,11-6.7,15.8-7.7c4.8-1,12.5,0,13.4,0l47.5,3.8c1.9,0,8.2,1,11.5,4.8c2.9,2.9,4.3,9.6,5.3,12l3.4,13l-11.5,2.9l-3.4-13.4   c-0.5-2.9-1.4-5.8-2.4-6.7c-0.5-0.5-2.9-1-4.3-1.4l-47-3.8c-2.9,0-8.2-0.5-10.6,0c-1.4,0.5-7.2,2.9-11.5,6.2L181,172.8   c-0.5,0-10.1,5.8-14.4,7.7C163.7,181.9,160.3,182.4,157.4,182.4z"></path><path d="M256.3,357.1c-7.7,0-19.2-3.8-21.6-4.8l3.8-10.6c6.7,2.4,15.8,4.3,18.7,3.8c2.4-0.5,6.7-4.8,8.6-7.7l9.1,6.2   c-1.4,1.9-8.2,11-16.3,12C257.8,357.1,257.3,357.1,256.3,357.1z"></path><path d="M283.2,351.8C282.7,351.8,282.7,351.8,283.2,351.8c-14.9-0.5-33.6-19.7-35.5-22.1l8.2-7.7c6.7,7.2,19.7,18.2,27.4,18.2l0,0   c3.4,0,8.6-5.8,11.5-9.6l9.1,6.2C301.9,339.4,293.8,351.8,283.2,351.8z"></path><path d="M306.2,339.8c-8.2,0-15.8-6.7-16.8-7.2l-24-21.6l7.7-8.2l24,21.6c1.9,1.4,6.7,4.8,10.1,4.3c3.8-0.5,6.2-2.4,8.2-6.2   c1-1.9,1.9-5.8,1.9-7.7l11,0.5c0,1-0.5,7.2-3.4,12.5c-3.8,6.7-9.1,10.6-16.3,11.5C307.7,339.8,306.7,339.8,306.2,339.8z"></path><path d="M329.8,321.1c-8.6,0-16.8-6.7-22.1-11.5c-6.2-5.8-22.1-25.4-23-26.4l8.6-7.2c4.3,5.8,17.3,21.1,22.1,25.4   c7.7,7.7,12.5,8.6,14.9,8.6c4.8-0.5,8.2-2.4,10.6-5.3c2.9-3.8,3.8-9.1,3.4-12c-0.5-3.8-1-5.3-4.3-8.6l8.2-7.7   c4.8,4.8,6.7,8.6,7.2,14.9c1,5.8-0.5,13.9-5.8,20.6c-4.3,5.3-10.6,8.6-18.2,9.6C330.7,321.1,330.2,321.1,329.8,321.1z"></path><path d="M386.9,221.3l-2.9-10.6l8.2-1.9l2.9,11L386.9,221.3z M403.2,217l-2.4-10.6l8.2-1.9l2.9,11L403.2,217z M419.5,213.1l-2.9-11   l8.2-1.9l2.9,11L419.5,213.1z M436.3,208.8l-2.9-11l8.2-1.9l2.9,11L436.3,208.8z"></path><path d="M126.2,311.5l-32.6-10.1l3.4-10.6l21.6,6.2c1.4-6.7,3.4-19.7,2.9-33.6c-0.5-19.2-17.3-32.6-17.3-32.6l6.7-8.6   c1,0.5,21.1,16.3,22.1,41.3c0.5,23-4.3,41.8-4.8,42.2L126.2,311.5z"></path><path d="M124.8,251l-2.9-10.6c-0.5,0-0.5,0.5-0.5,0.5s3.8-2.4,8.2-14.9c4.3-12.5,11-38.4,13.9-49.4l-20.2-5.3l2.9-10.6l31.2,8.2   l-1.4,5.3c-0.5,1.4-10.1,38.9-15.8,55.7C133.9,247.2,127.7,250.6,124.8,251z"></path><path d="M78.7,338.9c-1,0-2.4,0-3.4-0.5c-10.6-2.4-46.6-12-48.5-12.5l2.9-10.6c0.5,0,37.4,9.6,48,12c1.4,0.5,2.4,0,2.9-0.5   c1.9-1.4,2.9-4.8,2.9-6.2v-0.5l36-162.7L61,141.6l2.9-10.6l68.6,18.2L94.1,322.1c-0.5,1.9-1.9,9.6-7.7,13.4   C84.5,337.9,81.6,338.9,78.7,338.9z"></path><path d="M76.8,297.6l-8.2-1.9l2.4-11l8.2,1.9L76.8,297.6z M60,293.8l-8.2-1.9l2.4-11l8.2,1.9L60,293.8z M43.7,289.9l-8.2-1.9   l2.4-11l8.2,1.9L43.7,289.9z"></path><path d="M428.6,302.9c-10.6,0-19.2-8.6-19.2-19.2s8.6-19.2,19.2-19.2s19.2,8.6,19.2,19.2S439.2,302.9,428.6,302.9z M428.6,276   c-4.3,0-7.7,3.4-7.7,7.7s3.4,7.7,7.7,7.7s7.7-3.4,7.7-7.7C436.3,279.4,433,276,428.6,276z"></path></g><g display="none"><g display="inline"><rect x="0" y="0" fill="#000000" stroke="#0079E9" stroke-width="1.000000e-02" stroke-miterlimit="10" width="120" height="120"></rect><rect x="120" y="0" fill="#000000" stroke="#0079E9" stroke-width="1.000000e-02" stroke-miterlimit="10" width="120" height="120"></rect><rect x="240" y="0" fill="#000000" stroke="#0079E9" stroke-width="1.000000e-02" stroke-miterlimit="10" width="120" height="120"></rect><rect x="360" y="0" fill="#000000" stroke="#0079E9" stroke-width="1.000000e-02" stroke-miterlimit="10" width="120" height="120"></rect><rect x="0" y="120" fill="#000000" stroke="#0079E9" stroke-width="1.000000e-02" stroke-miterlimit="10" width="120" height="120"></rect><rect x="120" y="120" fill="#000000" stroke="#0079E9" stroke-width="1.000000e-02" stroke-miterlimit="10" width="120" height="120"></rect><rect x="240" y="120" fill="#000000" stroke="#0079E9" stroke-width="1.000000e-02" stroke-miterlimit="10" width="120" height="120"></rect><rect x="360" y="120" fill="#000000" stroke="#0079E9" stroke-width="1.000000e-02" stroke-miterlimit="10" width="120" height="120"></rect><rect x="0" y="240" fill="#000000" stroke="#0079E9" stroke-width="1.000000e-02" stroke-miterlimit="10" width="120" height="120"></rect><rect x="120" y="240" fill="#000000" stroke="#0079E9" stroke-width="1.000000e-02" stroke-miterlimit="10" width="120" height="120"></rect><rect x="240" y="240" fill="#000000" stroke="#0079E9" stroke-width="1.000000e-02" stroke-miterlimit="10" width="120" height="120"></rect><rect x="360" y="240" fill="#000000" stroke="#0079E9" stroke-width="1.000000e-02" stroke-miterlimit="10" width="120" height="120"></rect><rect x="0" y="360" fill="#000000" stroke="#0079E9" stroke-width="1.000000e-02" stroke-miterlimit="10" width="120" height="120"></rect><rect x="120" y="360" fill="#000000" stroke="#0079E9" stroke-width="1.000000e-02" stroke-miterlimit="10" width="120" height="120"></rect><rect x="240" y="360" fill="#000000" stroke="#0079E9" stroke-width="1.000000e-02" stroke-miterlimit="10" width="120" height="120"></rect><rect x="360" y="360" fill="#000000" stroke="#0079E9" stroke-width="1.000000e-02" stroke-miterlimit="10" width="120" height="120"></rect></g></g></svg>