<?xml version="1.0" encoding="UTF-8"?>
<svg width="437px" height="235px" viewBox="0 0 437 235" version="1.1" xmlns="http://www.w3.org/2000/svg" xmlns:xlink="http://www.w3.org/1999/xlink">
    <!-- Generator: Sketch 43.2 (39069) - http://www.bohemiancoding.com/sketch -->
    <title>handshake</title>
    <desc>Created with Sketch.</desc>
    <defs></defs>
    <g id="Page-1" stroke="none" stroke-width="1" fill="none" fill-rule="evenodd">
        <g id="handshake" fill-rule="nonzero" fill="#000000">
            <path d="M340.2,183.5 L338.8,178.2 C338.8,177.2 333.5,158.5 334,136 C334.5,111.5 355.1,95.7 356.1,94.7 L362.8,103.3 C362.8,103.3 346,116.7 345.5,135.9 C345,149.8 346.9,162.8 348.4,169.5 L370,163.3 L373.4,173.9 L340.2,183.5 Z" id="Shape"></path>
            <path d="M341.2,123 C338.8,122.5 332.1,118.7 326.3,101.4 C320.5,84.6 310.9,47.6 310.5,45.7 L309.1,40.4 L340.3,32.2 L343.2,42.8 L323,48.1 C325.9,59.1 332.6,85.1 336.9,97.5 C341.2,109.9 344.6,112.4 345.1,112.4 C345.1,112.4 345.1,112.4 344.6,111.9 L341.2,123 Z" id="Shape"></path>
            <path d="M387.8,210.9 C384.9,210.9 382,209.9 380.1,208.5 C374.3,204.7 372.4,196.5 372.4,195.1 L334,22.2 L399.8,5.4 L402.7,16 L347.5,29.9 L383.5,192.6 C383.5,194 384.9,197.4 386.4,198.8 C386.9,199.3 387.4,199.3 389.3,199.3 C399.9,196.9 433.9,188.7 433.9,188.7 L436.3,199.7 C435.8,199.7 401.7,207.9 391.2,210.3 C390.2,210.4 388.7,210.9 387.8,210.9 L387.8,210.9 Z" id="Shape"></path>
            <path d="M330.6,164.8 C327.7,164.8 324.4,164.3 322,162.9 C317.2,160.5 269.7,111.5 239.4,79.4 C237.5,80.8 235.1,82.3 232.2,83.7 C227.4,86.1 222.6,87.1 219.2,87.5 C217.3,92.8 213.4,102.9 208.6,112.5 C203.3,124 188,127.4 179.3,125.9 C166.8,124 166.8,117.7 168.3,103.8 C169.7,90.8 171.2,81.2 171.7,79.8 C172.2,76.4 174.6,56.8 183.2,48.6 C190.4,41.9 218.7,23.2 222.6,20.8 C226.4,17.4 235.1,13.6 247.1,18.4 C259.6,23.2 320.5,47.2 321,47.7 L316.7,58.3 C316.2,57.8 254.8,33.8 242.8,29.5 C234.6,26.6 230.3,29.5 229.8,30 L229.3,30.5 L228.8,30.5 C220.2,36.3 196.6,52.1 190.9,57.4 C186.6,61.7 183.7,75.6 182.7,81.9 L182.7,82.4 C182.7,82.4 180.8,92 179.8,105.9 C179.3,108.3 178.8,113.6 179.3,115.5 C179.8,115.5 180.7,116 181.7,116 C187,117 196.6,114.6 199.5,108.8 C205.3,96.3 210.5,81.4 210.5,81.4 L211.9,78 L215.7,78 C215.7,78 222.9,77.5 228.2,75.1 C233.5,72.2 235.4,69.8 235.9,69.3 L239.7,63.1 L244.5,68.9 C274.3,99.6 322.7,150 328.5,154.3 C330.4,155.3 335.7,154.8 339.1,153.8 L342,164.4 C339.8,163.8 335.4,164.8 330.6,164.8 L330.6,164.8 Z" id="Shape"></path>
            <path d="M175.1,223.8 C171.3,223.8 167.4,222.4 163.6,220 C150.2,210.4 155,193.1 159.3,185.4 L161.2,182.5 L164.6,182.5 C165.1,182.5 175.6,183.5 184.3,190.7 C193.9,198.9 195.8,206.1 195.8,207 L196.3,209.4 L194.9,211.8 C193.8,213.3 186.6,223.8 175.1,223.8 L175.1,223.8 Z M167.4,194.6 C166.9,196 166.4,197.5 166,199.4 C165,206.1 167.9,209 169.8,210.4 C171.7,211.8 173.2,212.3 175.1,212.3 C178.5,212.3 181.8,209.4 183.7,207.5 C182.7,205.6 180.3,202.7 176.5,198.9 C173.2,197 169.8,195.5 167.4,194.6 L167.4,194.6 Z" id="Shape"></path>
            <path d="M149.7,205.1 C146.8,205.1 143.9,204.1 141.1,202.7 C128.6,196 131,180.6 133.9,173.9 L135.3,171 L138.7,171 L139.7,171 C141.6,171 149.3,171.5 156,176.3 C164.6,182.1 167,188.3 167.5,189.3 L168.5,191.7 L167.5,193.6 C165,197 158.8,205.1 149.7,205.1 L149.7,205.1 Z M143,181.6 C142,185 142,190.2 146.4,192.6 C147.4,193.1 148.8,193.6 149.8,193.6 C152.2,193.6 154.6,191.7 156,189.8 C155,188.4 153.1,186.4 150.2,184.5 C147.8,183 144.9,182.1 143,181.6 Z" id="Shape"></path>
            <path d="M199.1,234.4 C197.2,234.4 194.8,233.9 192.9,233 C180.9,228.2 181.9,214.3 183.8,208 L184.8,204.6 L188.2,204.1 L191.6,204.1 C194.5,204.1 199.3,204.6 204.1,207 C212.3,211.3 215.1,216.1 215.6,217.1 L216.6,219.5 L215.6,221.9 C214,226.2 208.2,234.4 199.1,234.4 L199.1,234.4 Z M193.8,215.2 C193.8,218.1 193.8,221.4 197.2,222.9 C198.2,223.4 198.6,223.4 199.1,223.4 C201,223.4 202.5,222 203.4,220 C202.4,219 201,217.6 198.6,216.6 C197.2,215.7 195.3,215.2 193.8,215.2 L193.8,215.2 Z" id="Shape"></path>
            <path d="M129,188.8 C126.6,188.8 124.2,188.3 121.8,186.9 C111.2,181.1 113.2,168.7 116,162.9 L117.4,160 L120.8,160 L121.3,160 C123.7,160 129.5,160.5 134.7,164.3 C141.4,169.1 143.8,173.9 143.8,174.9 L144.8,177.3 L143.8,179.7 C143.4,179.7 138.2,188.8 129,188.8 L129,188.8 Z M125.2,171 C124.7,172.9 125.2,175.8 127.6,176.8 C128.1,177.3 129,177.3 129.5,177.3 C130.5,177.3 131.4,176.3 132.4,175.4 C131.4,174.4 130.5,173.5 129,172.5 C127.1,172 126.2,171.5 125.2,171 L125.2,171 Z" id="Shape"></path>
            <path d="M119,170.1 C119,170.1 109.9,166.3 98.8,161.9 L103.1,151.3 C113.7,156.1 122.8,159.9 122.8,159.9 L119,170.1 Z" id="Shape"></path>
            <path d="M131.4,54.4 C128.5,54.4 126.1,53.9 125.2,53.4 L121.4,52.4 L124.3,41.4 L128.6,42.4 C128.6,42.4 132.4,43.4 135.8,41.9 C139.6,40 148.3,35.2 149.2,34.7 L191,8.8 C193.4,7.4 202,2.1 206.8,1.1 C211.6,0.1 219.3,1.1 220.2,1.1 L267.7,4.9 C269.6,4.9 275.9,5.9 279.2,9.7 C282.1,12.6 283.5,19.3 284.5,21.7 L287.9,34.7 L276.4,37.6 L273,24.2 C272.5,21.3 271.6,18.4 270.6,17.5 C270.1,17 267.7,16.5 266.3,16.1 L219.3,12.3 C216.4,12.3 211.1,11.8 208.7,12.3 C207.3,12.8 201.5,15.2 197.2,18.5 L155,44.8 C154.5,44.8 144.9,50.6 140.6,52.5 C137.7,53.9 134.3,54.4 131.4,54.4 L131.4,54.4 Z" id="Shape"></path>
            <path d="M230.3,229.1 C222.6,229.1 211.1,225.3 208.7,224.3 L212.5,213.7 C219.2,216.1 228.3,218 231.2,217.5 C233.6,217 237.9,212.7 239.8,209.8 L248.9,216 C247.5,217.9 240.7,227 232.6,228 C231.8,229.1 231.3,229.1 230.3,229.1 L230.3,229.1 Z" id="Shape"></path>
            <path d="M257.2,223.8 C256.7,223.8 256.7,223.8 257.2,223.8 C242.3,223.3 223.6,204.1 221.7,201.7 L229.9,194 C236.6,201.2 249.6,212.2 257.3,212.2 C260.7,212.2 265.9,206.4 268.8,202.6 L277.9,208.8 C275.9,211.4 267.8,223.8 257.2,223.8 L257.2,223.8 Z" id="Shape"></path>
            <path d="M280.2,211.8 C272,211.8 264.4,205.1 263.4,204.6 L239.4,183 L247.1,174.8 L271.1,196.4 C273,197.8 277.8,201.2 281.2,200.7 C285,200.2 287.4,198.3 289.4,194.5 C290.4,192.6 291.3,188.7 291.3,186.8 L302.3,187.3 C302.3,188.3 301.8,194.5 298.9,199.8 C295.1,206.5 289.8,210.4 282.6,211.3 C281.7,211.8 280.7,211.8 280.2,211.8 L280.2,211.8 Z" id="Shape"></path>
            <path d="M303.8,193.1 C295.2,193.1 287,186.4 281.7,181.6 C275.5,175.8 259.6,156.2 258.7,155.2 L267.3,148 C271.6,153.8 284.6,169.1 289.4,173.4 C297.1,181.1 301.9,182 304.3,182 C309.1,181.5 312.5,179.6 314.9,176.7 C317.8,172.9 318.7,167.6 318.3,164.7 C317.8,160.9 317.3,159.4 314,156.1 L322.2,148.4 C327,153.2 328.9,157 329.4,163.3 C330.4,169.1 328.9,177.2 323.6,183.9 C319.3,189.2 313,192.5 305.4,193.5 C304.7,193.1 304.2,193.1 303.8,193.1 L303.8,193.1 Z" id="Shape"></path>
            <path d="M360.9,93.3 L358,82.7 L366.2,80.8 L369.1,91.8 L360.9,93.3 Z M377.2,89 L374.8,78.4 L383,76.5 L385.9,87.5 L377.2,89 Z M393.5,85.1 L390.6,74.1 L398.8,72.2 L401.7,83.2 L393.5,85.1 Z M410.3,80.8 L407.4,69.8 L415.6,67.9 L418.5,78.9 L410.3,80.8 Z" id="Shape"></path>
            <path d="M100.2,183.5 L67.6,173.4 L71,162.8 L92.6,169 C94,162.3 96,149.3 95.5,135.4 C95,116.2 78.2,102.8 78.2,102.8 L84.9,94.2 C85.9,94.7 106,110.5 107,135.5 C107.5,158.5 102.7,177.3 102.2,177.7 L100.2,183.5 Z" id="Shape"></path>
            <path d="M98.8,123 L95.9,112.4 C95.4,112.4 95.4,112.9 95.4,112.9 C95.4,112.9 99.2,110.5 103.6,98 C107.9,85.5 114.6,59.6 117.5,48.6 L97.3,43.3 L100.2,32.7 L131.4,40.9 L130,46.2 C129.5,47.6 119.9,85.1 114.2,101.9 C107.9,119.2 101.7,122.6 98.8,123 L98.8,123 Z" id="Shape"></path>
            <path d="M52.7,210.9 C51.7,210.9 50.3,210.9 49.3,210.4 C38.7,208 2.7,198.4 0.8,197.9 L3.7,187.3 C4.2,187.3 41.1,196.9 51.7,199.3 C53.1,199.8 54.1,199.3 54.6,198.8 C56.5,197.4 57.5,194 57.5,192.6 L57.5,192.1 L93.5,29.4 L35,13.6 L37.9,3 L106.5,21.2 L68.1,194.1 C67.6,196 66.2,203.7 60.4,207.5 C58.5,209.9 55.6,210.9 52.7,210.9 L52.7,210.9 Z" id="Shape"></path>
            <path d="M50.8,169.6 L42.6,167.7 L45,156.7 L53.2,158.6 L50.8,169.6 Z M34,165.8 L25.8,163.9 L28.2,152.9 L36.4,154.8 L34,165.8 Z M17.7,161.9 L9.5,160 L11.9,149 L20.1,150.9 L17.7,161.9 Z" id="Shape"></path>
            <path d="M402.6,174.9 C392,174.9 383.4,166.3 383.4,155.7 C383.4,145.1 392,136.5 402.6,136.5 C413.2,136.5 421.8,145.1 421.8,155.7 C421.8,166.3 413.2,174.9 402.6,174.9 Z M402.6,148 C398.3,148 394.9,151.4 394.9,155.7 C394.9,160 398.3,163.4 402.6,163.4 C406.9,163.4 410.3,160 410.3,155.7 C410.3,151.4 407,148 402.6,148 Z" id="Shape"></path>
        </g>
    </g>
</svg>