<svg fill="#82bc00" viewBox="0 0 60 60" xmlns="http://www.w3.org/2000/svg"><g fill="#82bc00" fill-rule="evenodd" transform="translate(0 -1)"><path d="m42 1.9982c0-.55228475-.4477153-1-1-1h-22c-.5522847 0-1 .44771525-1 1v17h-17c-.55228475 0-1 .4477153-1 1v22c0 .5522847.44771525 1 1 1h17v17c0 .5522847.4477153 1 1 1h22c.5522847 0 1-.4477153 1-1v-17h17c.5522847 0 1-.4477153 1-1v-22c0-.5522847-.4477153-1-1-1h-17zm16 39h-17c-.5522847 0-1 .4477153-1 1v17h-20v-17c0-.5522847-.4477153-1-1-1h-17v-20h17c.5522847 0 1-.4477153 1-1v-17h20v17c0 .5522847.4477153 1 1 1h17z"/><path d="m29 5.9982v3c0 .55228475.4477153 1 1 1s1-.44771525 1-1v-3c0-.55228475-.4477153-1-1-1s-1 .44771525-1 1z"/><path d="m29 13.9982v3c0 .5522847.4477153 1 1 1s1-.4477153 1-1v-3c0-.5522847-.4477153-1-1-1s-1 .4477153-1 1z"/><path d="m29 21.9982v3c0 .5522847.4477153 1 1 1s1-.4477153 1-1v-3c0-.5522847-.4477153-1-1-1s-1 .4477153-1 1z"/><path d="m29 29.9982v3c0 .5522847.4477153 1 1 1s1-.4477153 1-1v-3c0-.5522847-.4477153-1-1-1s-1 .4477153-1 1z"/><path d="m29 37.9982v3c0 .5522847.4477153 1 1 1s1-.4477153 1-1v-3c0-.5522847-.4477153-1-1-1s-1 .4477153-1 1z"/><path d="m29 45.9982v3c0 .5522847.4477153 1 1 1s1-.4477153 1-1v-3c0-.5522847-.4477153-1-1-1s-1 .4477153-1 1z"/><path d="m29 53.9982v2c0 .5522847.4477153 1 1 1s1-.4477153 1-1v-2c0-.5522847-.4477153-1-1-1s-1 .4477153-1 1z"/><path d="m55 29.9982h-3c-.5522847 0-1 .4477153-1 1s.4477153 1 1 1h3c.5522847 0 1-.4477153 1-1s-.4477153-1-1-1z"/><path d="m47 29.9982h-3c-.5522847 0-1 .4477153-1 1s.4477153 1 1 1h3c.5522847 0 1-.4477153 1-1s-.4477153-1-1-1z"/><path d="m39 29.9982h-3c-.5522847 0-1 .4477153-1 1s.4477153 1 1 1h3c.5522847 0 1-.4477153 1-1s-.4477153-1-1-1z"/><path d="m23 29.9982h-3c-.5522847 0-1 .4477153-1 1s.4477153 1 1 1h3c.5522847 0 1-.4477153 1-1s-.4477153-1-1-1z"/><path d="m15 29.9982h-3c-.5522847 0-1 .4477153-1 1s.4477153 1 1 1h3c.5522847 0 1-.4477153 1-1s-.4477153-1-1-1z"/><path d="m7 29.9982h-2c-.55228475 0-1 .4477153-1 1s.44771525 1 1 1h2c.55228475 0 1-.4477153 1-1s-.44771525-1-1-1z"/></g></svg>