<svg height="46" viewBox="0 0 68 46" width="68" xmlns="http://www.w3.org/2000/svg"><path d="m.385.705v44.59h67.23v-44.59zm64.23 3v10.863h-22.817l3.432-4.854-2.45-1.732-3.956 5.596c-1.771-2.738-3.671-4.485-3.819-4.619l-1.005-.905-1.004.905c-.148.134-2.048 1.881-3.819 4.619l-3.956-5.595-2.449 1.732 3.432 4.854h-22.819v-10.864zm-37.488 24.727h-23.742v-10.864h23.742c-.63 1.663-1.048 3.495-1.048 5.432s.418 3.769 1.048 5.432zm1.952-5.432c0-4.729 3.233-8.917 4.923-10.783 1.691 1.861 4.92 6.036 4.92 10.783 0 4.728-3.233 8.916-4.924 10.783-1.691-1.861-4.919-6.036-4.919-10.783zm11.794-5.432h23.742v10.863h-23.741c.63-1.663 1.048-3.495 1.048-5.432s-.418-3.768-1.049-5.431zm-37.488 24.727v-10.863h22.818l-3.432 4.854 2.449 1.731 3.956-5.596c1.771 2.738 3.671 4.485 3.819 4.619l1.005.906 1.004-.905c.148-.134 2.048-1.881 3.819-4.619l3.957 5.596 2.449-1.732-3.432-4.854h22.817v10.863z"/></svg>