                  <svg xmlns="http://www.w3.org/2000/svg" width="50" height="50" fill="#36e6cc"  xmlns:xlink="http://www.w3.org/1999/xlink" version="1.1" x="0px" y="0px" viewBox="0 0 64 64" style="enable-background:new 0 0 64 64;" xml:space="preserve"><g><path d="M20.3,27.1c0.8,0.8,1.9,1.3,2.9,1.3c0,0,0.1,0,0.1,0c1.2,0,2.3-0.4,3.2-1.3c0.8-0.8,1.4-1.6,1.8-2.5   c0.8-1.8,1.2-3.7,1.2-5.5l0-0.2c0-0.2,0-0.4,0-0.7c-0.2-2.2-1.4-3.8-3.4-4.6c-0.8-0.3-1.7-0.5-2.8-0.5c-1,0-1.9,0.2-2.7,0.5   c-2,0.8-3.2,2.4-3.4,4.6c0,0.2,0,0.4,0,0.7l0,0.2c0,1.8,0.4,3.7,1.2,5.5C18.9,25.5,19.5,26.4,20.3,27.1z M19.8,18.6   c0.1-1.3,0.7-2.1,1.8-2.5c0.5-0.2,1.2-0.3,1.8-0.3c0.7,0,1.3,0.1,1.8,0.3c1.1,0.5,1.7,1.2,1.8,2.5c0,0.1,0,0.2,0,0.4l0,0.2   c0,1.5-0.3,3-1,4.5c-0.3,0.6-0.7,1.1-1.2,1.7c-0.4,0.4-0.9,0.6-1.4,0.6c-0.5,0-0.9-0.2-1.3-0.6c-0.6-0.6-1-1.1-1.2-1.7   c-0.7-1.5-1-3-1-4.5l0-0.3C19.8,18.8,19.8,18.7,19.8,18.6z"></path><path d="M14.9,31.9c-1.1,0.3-1.9,1.2-2,2.4c0,0.1,0,0.4-0.1,0.7l0,0.1c-0.1,0.5-0.1,1.1-0.1,1.4c0,2.3-0.1,4.6,0,7   c0,0.8,0,1.7,0,2.6c0,0.9,0.2,1.7,0.5,2.4c0.3,0.8,0.8,1.5,1.5,2.3l0,0.4c0,0.1,0,0.2,0,0.4c0.1,1.5,0.1,3.1,0.2,4.6l0,0.2   c0.7,2.9,2.8,4.5,5.8,4.5h2.4c1.1,0,2,0,3,0c2.5,0,4.5-1.5,5.2-3.8l0.1-0.4c0.1-2.1,0.1-4.2,0.2-6.3l0.2-6.2c0-0.3,0-1,0.1-1.9   c0-0.8,0.1-2.1,0.1-3.1l0.1,0c0.7,0.3,1.5,0.6,2.3,0.8l0.4,0.1c0.7,0.2,1.4,0.4,2.1,0.5c0.4,0.1,0.8,0.1,1.4,0   c2.8-0.3,5.6-1,8.7-2.1c1.8-0.6,2.9-2.4,2.5-4.1c-0.2-1.2-0.9-2.1-1.9-2.7c-0.9-0.5-2.1-0.7-3.3-0.3c-2,0.6-3.7,1-5.4,1.4   c-0.5,0.1-0.8,0.2-1,0.2l-0.2,0c-0.1,0-0.1,0-0.2,0c-1.7-0.3-3.2-1-4.4-1.7c-0.4-0.2-1.1-0.5-1.8-0.6c-0.7-0.1-1.5-0.1-2.2-0.2   l-0.1,0c-0.5,0-1-0.1-1.5-0.1l-0.1,0l-0.4,0c-0.5,0.1-0.6,0.2-3.6,4.1c-1.8-2.3-2.4-3.1-2.8-3.5c-0.1-0.1-0.1-0.1-0.2-0.2L20.5,31   c-0.1-0.1-0.4-0.3-0.7-0.4l-0.2,0L19,30.6l0.3,1.2l-0.4-1.2c-0.2,0.1-0.6,0.2-0.9,0.3c-0.1,0-0.2,0.1-0.3,0.1l-0.3,0.1   c-0.7,0.2-1.6,0.5-2.3,0.7L14.9,31.9z M15.3,36.6c0-0.2,0.1-0.7,0.1-1.2l0-0.1c0-0.4,0.1-0.8,0.1-0.9c0,0,0,0,0.1-0.1l0.2,0   c0.8-0.3,1.7-0.5,2.4-0.8v0c0.1,0,0.2-0.1,0.3-0.1c0.1,0,0.3-0.1,0.4-0.1c0.1,0,0.2-0.1,0.3-0.1c0.4,0.4,1.3,1.6,2.9,3.7   c0.4,0.5,0.9,0.7,1.5,0.7c0,0,0,0,0,0c0.6,0,1.1-0.3,1.5-0.7c1.5-2,2.5-3.2,2.9-3.8c0.3,0,0.7,0,1,0.1l0.1,0   c0.7,0.1,1.4,0.1,2.1,0.2c0.4,0,0.7,0.2,0.9,0.3c1.3,0.7,3.1,1.6,5.2,1.9c0.2,0,0.5,0.1,0.7,0.1l0.2,0c0.4,0,0.9-0.1,1.5-0.2   c1.7-0.4,3.4-0.9,5.5-1.5c0.5-0.1,1-0.1,1.3,0.1c0.3,0.2,0.6,0.6,0.7,1c0.1,0.5-0.3,1.1-0.9,1.3c-2.9,1-5.6,1.7-8.2,2l-0.1,0   c0,0-0.1,0-0.1,0c-0.2,0-0.4,0-0.5,0c-0.5-0.1-1.1-0.2-1.7-0.4l-0.2-0.1c-0.1,0-0.2-0.1-0.3-0.1c-0.7-0.2-1.4-0.5-2-0.7l-0.3-0.1   c-0.4-0.2-0.9-0.3-1.3-0.5l-0.7-0.3L29.9,37l-0.1,0.4c-0.1,0.3-0.1,0.7-0.2,5c0,0.9-0.1,1.6-0.1,1.9l-0.2,6.2   c-0.1,2-0.1,4.1-0.2,6.2c-0.4,1.2-1.5,1.8-2.8,1.9c-1,0-1.9,0-2.9,0c0,0,0,0,0,0h-2.4c-1.8,0-3-0.8-3.4-2.5   c-0.1-1.5-0.1-3.1-0.2-4.6L17.2,50l-0.1-0.2c-0.1-0.2-0.2-0.3-0.3-0.5l-0.2-0.2c-0.5-0.5-0.8-1-1-1.6c-0.2-0.5-0.3-1-0.3-1.6   c0-0.9,0-1.7,0-2.5C15.2,41.1,15.2,38.8,15.3,36.6z"></path><path d="M0.8,47.4h8.1c0.7,0,1.3-0.6,1.3-1.3s-0.6-1.3-1.3-1.3H3.3V5.6h57.5v39.3H35.9c-0.7,0-1.3,0.6-1.3,1.3s0.6,1.3,1.3,1.3   h27.3V3.1H0.8V47.4z"></path></g></svg>
