<svg height="416" viewBox="0 0 2425 416" width="2425" xmlns="http://www.w3.org/2000/svg"><g fill="#fff" fill-rule="evenodd" transform="translate(-59.866636 -14.010457)"><path d="m417.887242 0v269.537271l-102.633107-269.537271h-46.469061l-103.301726 269.537271v-269.537271h-105.1404303v407.607216h146.0933793l85.583308-224.906914 84.914687 224.906914h146.09338v-407.607216z" transform="matrix(1 0 0 -1 .4005 422.390178)"/><path d="m250.732345 83.5774483v29.3356847c-18.303461-21.9808692-53.823877-36.6905001-91.684461-36.6905001-45.215399 0-101.4630221 31.1743881-101.4630221 97.2005721 0 71.458719 56.2476231 95.361869 101.4630221 95.361869 39.114246 0 73.966042-12.870927 91.684461-34.851796v29.335684c0 25.658277-21.980869 43.376696-59.92503 43.376696-29.335685 0-58.671369-11.617265-82.490942-31.75943l-34.8517959 65.357564c37.9441619 32.42805 88.6756729 45.800442 133.8910719 45.800442 70.873677 0 137.484903-26.243319 137.484903-117.92778v-184.5390057zm0 75.8047457v26.243319c-9.778561 14.041011-31.75943 20.810784-52.570215 20.810784-24.404615 0-47.054103-11.032223-47.054103-34.266753 0-23.234531 22.649488-34.183177 47.054103-34.183177 20.810785 0 42.791654 7.271238 52.570215 21.395827z" transform="matrix(1 0 0 -1 484.049164 505.969317)"/><path d="m0 83.5774483 39.1142458 67.1962687c21.9808689-19.557123 69.0349722-39.699288 103.8867682-39.699288 28.082023 0 39.699288 7.939857 39.699288 20.810784 0 36.606923-171.6680788-1.253661-171.6680788 118.512822 0 51.985173 45.2153995 97.200573 126.4526798 97.200573 50.146469 0 91.68446-15.879716 123.443891-39.114246l-36.021881-66.611227c-17.718419 17.133377-51.316553 32.344473-86.753391 32.344473-22.064446 0-36.6905-8.5249-36.6905-20.142165 0-32.344473 171.083037 1.253662 171.083037-119.766484 0-56.2476222-49.477849-96.5319523-133.807495-96.5319523-53.1552569 0-107.5641758 17.718419-138.738564 45.8004416" transform="matrix(1 0 0 -1 835.575911 467.473544)"/><path d="m250.732345 0v171.751656c0 36.021881-18.972081 47.639146-48.892807 47.639146-27.496981 0-45.800442-15.294673-56.832665-28.750642v-190.64016h-94.108207v407.607216h94.108207v-148.517126c17.718419 20.810784 52.570215 43.376696 102.048064 43.376696 67.196269 0 97.785615-37.860585 97.785615-92.269503v-210.197283z" transform="matrix(1 0 0 -1 1069.433969 422.391869)"/><path d="m250.732345 83.5774483v29.3356847c-18.303461-21.9808692-53.823877-36.6905001-91.684461-36.6905001-45.215399 0-101.4630221 31.1743881-101.4630221 97.2005721 0 71.458719 56.2476231 95.361869 101.4630221 95.361869 39.114246 0 73.966042-12.870927 91.684461-34.851796v29.335684c0 25.658277-21.980869 43.376696-59.92503 43.376696-29.335685 0-58.671369-11.617265-82.490942-31.75943l-34.8517959 65.357564c37.9441619 32.42805 88.6756729 45.800442 133.8910719 45.800442 70.873677 0 137.484903-26.243319 137.484903-117.92778v-184.5390057zm0 75.8047457v26.243319c-9.778561 14.041011-31.75943 20.810784-52.570215 20.810784-24.404615 0-47.054103-11.032223-47.054103-34.266753 0-23.234531 22.649488-34.183177 47.054103-34.183177 20.810785 0 42.791654 7.271238 52.570215 21.395827z" transform="matrix(1 0 0 -1 1370.078767 505.969317)"/><path d="m0 83.5774483v407.6072157h94.1082068v-147.263464c23.2345302 29.335684 54.9939612 42.123034 87.4220112 42.123034 73.966042 0 130.130087-58.002749 130.130087-154.61828 0-100.20936-57.417707-155.2033211-130.130087-155.2033211-33.013092 0-62.933819 13.4559692-87.4220112 41.5379921v-34.1831767zm150.35583 75.8047457c37.275542 0 65.357564 27.49698 65.357564 72.04376 0 44.045316-28.082022 71.542296-65.357564 71.542296-20.142165 0-44.630358-11.032223-56.2476232-26.911938v-90.430799c11.6172652-15.879715 36.1054582-26.243319 56.2476232-26.243319z" transform="matrix(1 0 0 -1 1747.263791 505.969317)"/><path d="m2069.94515 14.7929903h94.10826v407.6072157h-94.10826z"/><path d="m0 167.154897c0 85.583307 64.1874803 154.618279 156.456983 154.618279 87.422011 0 150.940872-64.18748 150.940872-164.396841v-21.395827h-210.1972826c6.6861956-26.243318 31.1743886-48.3077647 73.8824646-48.3077647 20.810784 0 55.077538 9.1935193 72.127338 25.0732347l40.952949-61.6801571c-29.335684-26.3268962-78.228491-39.1142458-123.443891-39.1142458-91.0158411 0-160.719433 59.2564109-160.719433 155.2033219m156.456983 78.813533c-40.952949 0-56.8326646-24.404614-60.5100723-45.800441h121.6051873c-2.423746 20.810784-17.718419 45.800441-61.095115 45.800441" transform="matrix(1 0 0 -1 2177.459321 441.653116)"/></g></svg>