<svg fill="#82bc00" viewBox="0 0 100 100" xmlns="http://www.w3.org/2000/svg"><path d="m50 6.96875c-23.724554 0-43.03125 19.30667-43.03125 43.03125v12a2.0002 2.0002 0 0 0 2.03125 2h12.28125c.301638.981034.830326 1.85706 1.53125 2.5625.341398.3436.327969.27495.5.40625.172031.1312.385082.2997.65625.5.542335.4005 1.28588.9321 2.15625 1.5625 1.740739 1.2609 3.995942 2.91585 6.25 4.53125 4.497682 3.2234 8.91699 6.3604 8.9375 6.375h.03125c1.879284 1.367165 4.346648 1.334264 6.1875.125 1.268831.717428 2.499613.9375 3.46875.9375 3.085334 0 7.474186-1.42685 12.15625-3.21875 4.665894-1.7856 9.301975-3.9417 12.125-5.875.0098-.01.02151-.02425.03125-.03125 1.523231-.998 2.6875-2.6605 2.6875-4.4375 0-.9281-.244057-1.83755-.65625-2.59375-.171405-.3145-.422746-.57045-.625-.84375h9.59375c-5.630443 14.6071-19.703924 25-36.3125 25-10.677896 0-20.418857-4.128552-27.46875-11h3.46875a2.0002 2.0002 0 1 0 0-4h-8a2.0002 2.0002 0 0 0 -.1875 0 2.0002 2.0002 0 0 0 -1.8125 2v8a2.0002 2.0002 0 1 0 4 0v-2.84375c7.776944 7.44059 18.422534 11.84375 30 11.84375 19.196292 0 35.295837-12.70865 40.8125-30.09375a2.0002 2.0002 0 0 0 .0625-.15625 2.0002 2.0002 0 0 0 .125-.40625 2.0002 2.0002 0 0 0 .03125-.1875c1.1539-3.8825 1.96875-7.90245 1.96875-12.15625v-14a2.0002 2.0002 0 0 0 -2-2h-20.40625l-16.75-7.8125a2.0002 2.0002 0 0 0 -1.15625-.1875 2.0002 2.0002 0 0 0 -.5625.1875l-16.03125 7.8125h-21.65625c6.098759-13.555516 19.709785-22.96875 35.5625-22.96875 10.677895 0 20.39049 4.102148 27.4375 10.96875h-3.4375a2.0002 2.0002 0 1 0 0 4h8a2.0002 2.0002 0 0 0 2-2v-8a2.0002 2.0002 0 0 0 -2.21875-2.03125 2.0002 2.0002 0 0 0 -1.78125 2.03125v2.875c-7.777063-7.442474-18.421852-11.90625-30-11.90625zm3 23.25 16.3125 7.59375a2.0002 2.0002 0 0 0 .84375.1875h18.84375v12c0 3.4853-.582571 6.7864-1.4375 10h-14.21875l-20.84375-23.34375a2.0002 2.0002 0 0 0 -2.21875-.53125l-12.59375 4.8125c-.0093.003-.02191-.002-.03125 0-.105877.0271-.227561.0625-.34375.0625-.478917 0-1.3125-.94094-1.3125-1.6875 0-.49263.272972-.89606.65625-1.125.008-.005-.0081-.02665 0-.03125zm-40.09375 7.78125h19.46875c-.118575.44007-.375.83782-.375 1.3125 0 2.91168 2.127481 5.6875 5.3125 5.6875.495083 0 .981491-.0917 1.4375-.21875a2.0002 2.0002 0 0 0 .1875-.0625l11.46875-4.375 22.4375 25.09375c.0082.01-.0081.02225 0 .03125.526726.6076.864241 1.03215 1 1.28125.137836.2529.15625.3142.15625.6875 0 .5624.08684.4839-.90625 1.125a2.0002 2.0002 0 0 0 -.03125.03125c-2.231622 1.5338-6.858499 3.721-11.34375 5.4375-4.485251 1.7166-9.144472 2.96875-10.71875 2.96875-.622614 0-.787321.05054-1.1875-.1875.463627-2.005859-.249511-4.207976-1.96875-5.53125l.03125-.03125s-.09285-.0625-.09375-.0625c-.08386-.069-3.976226-3.3088-8.0625-6.6875-2.064997-1.7074-4.151972-3.4081-5.78125-4.75s-2.633444-2.1737-3.0625-2.5c-1.031071-.7844-2.338522-1.25-3.71875-1.25-2.61363 0-4.827803 1.686638-5.71875 4h-10.40625v-10c0-4.193173.655049-8.217711 1.875-12zm14.25 22c.503286 0 .947535.12865 1.3125.40625-.0075-.01 1.311979 1.06745 2.9375 2.40625s3.717286 3.07465 5.78125 4.78125c4.127928 3.413 8.15625 6.75 8.15625 6.75a2.0002 2.0002 0 0 0 .09375.0625c.666405.4904.779576 1.30705.28125 1.96875-.510947.6785-1.373493.82775-2.03125.34375a2.0002 2.0002 0 0 0 -.03125-.03125s-4.435026-3.1482-8.9375-6.375c-2.251237-1.6134-4.519841-3.2468-6.25-4.5-.865079-.6266-1.601367-1.1758-2.125-1.5625-.261817-.1934-.482777-.329-.625-.4375s-.342614-.3449-.0625-.0625c-.401557-.4045-.65625-.9383-.65625-1.5625 0-1.2494.94345-2.1875 2.15625-2.1875z" fill="#82bc00"/></svg>