<?xml version="1.0" encoding="UTF-8"?>
<svg width="146px" height="95px" viewBox="0 0 146 95" version="1.1" xmlns="http://www.w3.org/2000/svg" xmlns:xlink="http://www.w3.org/1999/xlink">
    <!-- Generator: Sketch 43.2 (39069) - http://www.bohemiancoding.com/sketch -->
    <title>Wecraftlogohorizontal</title>
    <desc>Created with Sketch.</desc>
    <defs></defs>
    <g id="Page-1" stroke="none" stroke-width="1" fill="none" fill-rule="evenodd">
        <g id="Wecraftlogohorizontal" fill-rule="nonzero" fill="#000000">
            <path d="M128.4,18.3 L128.4,0.9 L17.5,0.9 L17.5,35.8 L0.1,35.8 L0.1,94.3 L111,94.3 L111,76.9 L145.9,76.9 L145.9,18.4 L128.4,18.4 L128.4,18.3 Z M122.2,53.2 L110.9,53.2 L110.9,35.8 L41.1,35.8 L41.1,24.5 L122.2,24.5 L122.2,53.2 L122.2,53.2 Z M122.2,18.3 L35,18.3 L35,35.7 L23.7,35.7 L23.7,7 L122.2,7 L122.2,18.3 Z M23.7,41.9 L35,41.9 L35,53.2 L35,57.3 L35,59.4 L41.2,59.4 L41.2,57.3 L41.2,53.2 L41.2,41.9 L52.5,41.9 L52.5,88.1 L6.3,88.1 L6.3,41.9 L17.6,41.9 L17.6,59.3 L23.8,59.3 L23.8,41.9 L23.7,41.9 Z M104.8,88.1 L58.6,88.1 L58.6,41.9 L104.8,41.9 L104.8,53.2 L87.4,53.2 L87.4,59.4 L104.8,59.4 L104.8,70.7 L87.4,70.7 L87.4,76.9 L104.8,76.9 L104.8,83.7 L104.8,88.1 Z M110.9,59.4 L128.3,59.4 L128.3,24.5 L139.6,24.5 L139.6,70.7 L110.9,70.7 L110.9,59.4 Z" id="Shape"></path>
        </g>
    </g>
</svg>